# xmcd
#
# Track frame offsets:
#	195
#	15343
#	24944
#	35849
#	41260
#	67683
#	91876
#
# Disc length: 1452 seconds
#
# Revision: 2
# Processed by: cddbd v1.5.2PL0 Copyright (c) Steve Scherf et al.
# Submitted via: audiograbber 1.83.01
#
DISCID=4105aa07
DTITLE=Kraftwerk - 3-D The Catalogue [CD 3) - Trans Europe Express
DYEAR=2017
DGENRE=Electronic
TTITLE0=Trans Europe Express [live]
TTITLE1=Metal On Metal [live]
TTITLE2=Abzug [live]
TTITLE3=Franz Schubert [live]
TTITLE4=Europe Endless [live]
TTITLE5=The Hall Of Mirrors [live]
TTITLE6=Showroom Dummies [live]
EXTD=
EXTT0=
EXTT1=
EXTT2=
EXTT3=
EXTT4=
EXTT5=
EXTT6=
PLAYORDER=
